{
	"asset":{
		"generator":"Khronos glTF Blender I/O v4.0.44",
		"version":"2.0"
	},
	"scene":0,
	"scenes":[
		{
			"name":"Scene",
			"nodes":[
				0
			]
		}
	],
	"nodes":[
		{
			"mesh":0,
			"name":"PL-QS1310-1all-3",
			"rotation":[
				0.6043251156806946,
				-0.5552543997764587,
				-0.5456991791725159,
				0.16939927637577057
			],
			"translation":[
				0,
				0.1958463042974472,
				0.2546002268791199
			]
		}
	],
	"materials":[
		{
			"doubleSided":true,
			"name":"PL-QS1310-1all-3",
			"pbrMetallicRoughness":{
				"baseColorTexture":{
					"index":0
				},
				"metallicFactor":0
			}
		}
	],
	"meshes":[
		{
			"name":"PL-QS1310-1all-3",
			"primitives":[
				{
					"attributes":{
						"POSITION":0,
						"NORMAL":1,
						"TEXCOORD_0":2
					},
					"indices":3,
					"material":0
				}
			]
		}
	],
	"textures":[
		{
			"sampler":0,
			"source":0
		}
	],
	"images":[
		{
			"mimeType":"image/jpeg",
			"name":"PL-QS1310-1all-3",
			"uri":"textures/PL-QS1310-1all-3.jpg"
		}
	],
	"accessors":[
		{
			"bufferView":0,
			"componentType":5126,
			"count":699527,
			"max":[
				5.373693943023682,
				3.1513166427612305,
				4.445704460144043
			],
			"min":[
				-3.3017120361328125,
				-4.685331344604492,
				-3.4324276447296143
			],
			"type":"VEC3"
		},
		{
			"bufferView":1,
			"componentType":5126,
			"count":699527,
			"type":"VEC3"
		},
		{
			"bufferView":2,
			"componentType":5126,
			"count":699527,
			"type":"VEC2"
		},
		{
			"bufferView":3,
			"componentType":5125,
			"count":699693,
			"type":"SCALAR"
		}
	],
	"bufferViews":[
		{
			"buffer":0,
			"byteLength":8394324,
			"byteOffset":0,
			"target":34962
		},
		{
			"buffer":0,
			"byteLength":8394324,
			"byteOffset":8394324,
			"target":34962
		},
		{
			"buffer":0,
			"byteLength":5596216,
			"byteOffset":16788648,
			"target":34962
		},
		{
			"buffer":0,
			"byteLength":2798772,
			"byteOffset":22384864,
			"target":34963
		}
	],
	"samplers":[
		{
			"magFilter":9729,
			"minFilter":9987
		}
	],
	"buffers":[
		{
			"byteLength":25183636,
			"uri":"red-spider-lily_particles.bin"
		}
	]
}
